<svg width="252" height="40" viewBox="0 0 252 40" fill="none" xmlns="http://www.w3.org/2000/svg">
<g clip-path="url(#clip0_204:1131)">
<path fill-rule="evenodd" clip-rule="evenodd" d="M16.0675 28.1376C15.2709 27.1434 14.6739 25.9946 14.3113 24.7584C14.3088 24.7526 14.305 24.7475 14.3004 24.7434C14.2957 24.7392 14.2903 24.7362 14.2844 24.7344C12.1585 24.0043 10.9916 22.7636 11.084 23.0189C12.559 27.0085 16.3486 28.4807 16.0675 28.1376ZM27.2129 22.975C26.2841 23.7651 25.2171 24.3624 24.0703 24.7344C24.0648 24.7362 24.0599 24.7392 24.0558 24.7434C24.0518 24.7476 24.0488 24.7527 24.0472 24.7584C23.6817 25.9942 23.0836 27.1427 22.2872 28.1376C22.0253 28.4488 25.7802 27.0564 27.2706 23.0189L27.2129 22.975ZM14.4461 14.513C14.4516 14.5113 14.4565 14.5082 14.4606 14.5041C14.4646 14.4999 14.4676 14.4947 14.4692 14.4891C15.1316 12.61 16.2639 11.4251 16.0097 11.5208C12.1585 13.0728 10.826 17.0185 11.1302 16.7472C12.4281 15.5982 12.7208 15.1593 14.4461 14.513ZM13.7259 17.2659C9.52426 18.9974 9.9479 21.6545 13.8838 23.374L13.9377 23.3301C13.5437 21.3472 13.4902 19.3079 13.7798 17.3058L13.7259 17.2659ZM24.5671 17.226C24.8677 19.2536 24.8181 21.3204 24.4207 23.3301L25.3027 22.9591C30.8369 19.8472 24.8328 16.9746 24.5786 17.1901C24.5752 17.193 24.5723 17.1966 24.5703 17.2007C24.5683 17.2049 24.5672 17.2094 24.5671 17.214V17.226ZM23.8816 14.4332C26.2116 15.2671 27.2629 16.6674 27.1281 16.3443C25.6069 12.6419 22.0214 11.2734 22.2872 11.5886C22.9673 12.427 23.4993 13.3833 23.8585 14.4133C23.8616 14.416 23.8654 14.4178 23.8695 14.4185C23.8736 14.4192 23.8777 14.4188 23.8816 14.4173V14.4332ZM19.2601 13.6792C20.3201 13.6763 21.3774 13.79 22.4143 14.0183L22.2371 13.5276C20.377 10.0686 17.5194 10.4276 15.8441 14.0143L15.8865 14.0662C16.9976 13.798 18.1347 13.6628 19.2755 13.6632L19.2601 13.6792ZM20.0958 25.5364L19.8725 28.5445C21.5978 27.994 22.8764 25.0975 22.6646 25.1454C21.8318 25.334 20.9856 25.4528 20.1343 25.5005C20.1245 25.504 20.1163 25.5111 20.1112 25.5204L20.0958 25.5364ZM20.427 16.3363C20.4874 18.9984 20.4103 21.662 20.196 24.3155C20.1767 24.507 23.1229 23.9445 23.1537 23.8328C23.7231 21.5367 23.7915 19.138 23.354 16.811C23.3501 16.6794 20.4347 16.1408 20.4424 16.3203L20.427 16.3363ZM18.0046 24.2956C17.7643 21.6583 17.6871 19.0077 17.7735 16.3602C17.7735 16.1807 14.9776 16.7592 14.9583 16.8589C14.5332 19.1674 14.6056 21.5447 15.1701 23.8208C15.2125 23.9086 18.0354 24.4871 18.02 24.2796L18.0046 24.2956ZM18.3358 28.4448L18.0662 25.4925C17.2567 25.4392 16.4521 25.3231 15.6592 25.1454C15.4513 25.0975 16.6644 27.8224 18.2858 28.4807L18.3358 28.4448ZM19.1061 7.26388V0.0546174C19.1056 0.0468466 19.1077 0.0391474 19.1118 0.0326713C19.116 0.0261952 19.1221 0.0212942 19.1292 0.0187122C19.1352 0.0138596 19.1427 0.0112305 19.1504 0.0112305C19.158 0.0112305 19.1655 0.0138596 19.1715 0.0187122L21.9251 4.04424C21.9288 4.04602 21.9327 4.04694 21.9367 4.04694C21.9407 4.04694 21.9446 4.04602 21.9483 4.04424C24.6039 4.55064 27.089 5.7566 29.1644 7.54606C31.2398 9.33553 32.8357 11.6483 33.7984 14.2617C34.1304 15.1522 34.3881 16.0705 34.5687 17.0065L31.3414 19.6078C31.2808 16.3065 29.9725 13.1615 27.6976 10.8489C25.4227 8.5362 22.3627 7.24039 19.1754 7.23994L19.1061 7.26388ZM19.1061 32.4783V39.9748C19.1059 39.9835 19.1032 39.9919 19.0984 39.999C19.0936 40.0061 19.0869 40.0116 19.0791 40.0147C19.0737 40.0192 19.0669 40.0217 19.0599 40.0217C19.0529 40.0217 19.0461 40.0192 19.0406 40.0147L16.2023 36.1328C16.1993 36.1311 16.196 36.1301 16.1926 36.1301C16.1892 36.1301 16.1859 36.1311 16.183 36.1328C14.9787 35.8938 13.8053 35.5109 12.6861 34.9918C10.7985 34.1214 9.09582 32.8728 7.67607 31.3178C6.25632 29.7628 5.14758 27.9321 4.41371 25.9313C4.07824 25.0325 3.82048 24.1046 3.64347 23.1585L7.01328 20.5414C7.18118 23.7516 8.52663 26.7741 10.7745 28.9908C13.0223 31.2074 16.0027 32.4507 19.1061 32.4663V32.4783ZM31.3414 20.0546H38.2235C38.231 20.0542 38.2384 20.0563 38.2447 20.0606C38.2509 20.0649 38.2556 20.0712 38.2581 20.0786C38.2618 20.0852 38.2638 20.0928 38.2638 20.1005C38.2638 20.1082 38.2618 20.1158 38.2581 20.1224L34.5802 23.0708C34.5782 23.0744 34.5771 23.0785 34.5771 23.0827C34.5771 23.0869 34.5782 23.0911 34.5802 23.0947C34.0811 25.8317 32.9137 28.3908 31.1892 30.5279C29.4647 32.6649 27.2406 34.3089 24.7288 35.303C23.955 35.6079 23.1592 35.8494 22.3488 36.0251C22.3167 36.027 22.2846 36.027 22.2525 36.0251L19.5567 32.4344H19.6683C22.7718 32.3045 25.7098 30.9499 27.8801 28.6481C30.0505 26.3463 31.2888 23.2718 31.3414 20.0546ZM13.4949 4.86212C14.3883 4.50863 15.3114 4.24152 16.2523 4.06419C16.2576 4.06104 16.2636 4.05938 16.2697 4.05938C16.2757 4.05938 16.2817 4.06104 16.287 4.06419L18.6786 7.25589C15.5059 7.39077 12.5097 8.80448 10.329 11.1955C8.1483 13.5865 6.95569 16.7656 7.00557 20.0546H0.0348913C0.0272022 20.0537 0.0199054 20.0506 0.0137948 20.0457C0.00768412 20.0407 0.00298879 20.0342 0.000225984 20.0267C-0.00358239 20.0208 -0.00561523 20.0138 -0.00561523 20.0067C-0.00561523 19.9996 -0.00358239 19.9927 0.000225984 19.9868L3.62037 17.1183C3.62217 17.1104 3.62217 17.1022 3.62037 17.0943C4.11764 14.3496 5.28722 11.7833 7.01697 9.64134C8.74673 7.49941 10.9786 5.85374 13.4987 4.86212H13.4949ZM19.1754 9.74941C27.8368 9.74941 32.2002 20.6491 26.0729 27.0006C19.9456 33.352 9.42028 28.8278 9.42028 19.8551C9.42028 18.5277 9.67274 17.2133 10.1632 15.9869C10.6537 14.7606 11.3726 13.6464 12.2788 12.7079C13.1851 11.7694 14.261 11.0251 15.4449 10.5175C16.6289 10.0099 17.8979 9.74889 19.1792 9.74941H19.1754Z" fill="white"/>
<path fill-rule="evenodd" clip-rule="evenodd" d="M153.016 23.2913V11.502C153.017 11.49 153.022 11.4788 153.031 11.4707C153.04 11.4626 153.051 11.4581 153.062 11.4581H157.299C157.31 11.4581 157.321 11.4627 157.329 11.471C157.337 11.4792 157.341 11.4903 157.341 11.502V28.4779C157.341 28.4895 157.337 28.5007 157.329 28.5089C157.321 28.5171 157.31 28.5217 157.299 28.5217H153.694H153.671L135.316 16.9119C135.31 16.9081 135.302 16.906 135.295 16.906C135.287 16.906 135.28 16.9081 135.274 16.9119C135.266 16.9152 135.26 16.9209 135.256 16.928C135.252 16.9352 135.25 16.9435 135.251 16.9518V25.9125C135.254 25.9229 135.254 25.9341 135.251 25.9444L132.736 28.4779C132.726 28.4819 132.715 28.4819 132.705 28.4779H130.972C130.96 28.4779 130.949 28.4734 130.94 28.4653C130.932 28.4571 130.927 28.446 130.926 28.434V11.482C130.927 11.47 130.932 11.4589 130.94 11.4507C130.949 11.4426 130.96 11.4381 130.972 11.4382H134.75C134.754 11.4364 134.757 11.4355 134.761 11.4355C134.765 11.4355 134.769 11.4364 134.773 11.4382L152.951 23.2993C152.957 23.3032 152.964 23.3052 152.972 23.3052C152.979 23.3052 152.987 23.3032 152.993 23.2993C153 23.2953 153.006 23.2895 153.01 23.2825C153.014 23.2755 153.016 23.2676 153.016 23.2594V23.2913ZM116.264 29.1162C112.798 29.1162 108.985 28.5696 105.823 27.0176C98.6911 23.5187 98.6911 16.3693 105.823 12.8744C108.985 11.3225 112.794 10.7759 116.264 10.7759C119.622 10.7759 123.504 11.0871 126.612 12.4994L126.997 12.6789C127.006 12.6828 127.012 12.689 127.017 12.6967C127.022 12.7045 127.024 12.7136 127.024 12.7228V16.7124C127.024 16.7196 127.022 16.7266 127.019 16.7329C127.016 16.7391 127.011 16.7444 127.005 16.7484C126.999 16.7519 126.993 16.7537 126.986 16.7537C126.979 16.7537 126.972 16.7519 126.967 16.7484C122.73 15.0767 121.105 14.3546 116.256 14.3546C113.711 14.3546 110.865 14.7535 108.554 15.9025C104.102 18.0889 104.102 21.7793 108.554 23.9656C110.865 25.1026 113.711 25.5136 116.256 25.5136C120.689 25.5136 123.065 24.3925 126.967 22.8605C126.972 22.8565 126.979 22.8544 126.986 22.8544C126.993 22.8544 126.999 22.8565 127.005 22.8605C127.011 22.8644 127.016 22.8697 127.019 22.8759C127.022 22.8822 127.024 22.8892 127.024 22.8964V27.4086C127.024 27.4179 127.022 27.4269 127.017 27.4347C127.012 27.4425 127.006 27.4487 126.997 27.4525H126.963C123.562 28.7771 119.865 29.1521 116.264 29.1521V29.1162ZM78.7572 15.0607V17.7059C78.7572 17.7175 78.7617 17.7287 78.7696 17.7369C78.7776 17.7451 78.7883 17.7497 78.7996 17.7497H94.7089C94.7209 17.7507 94.7321 17.756 94.7406 17.7648C94.7491 17.7736 94.7542 17.7852 94.7551 17.7976V21.2965C94.7551 21.3092 94.7503 21.3214 94.7416 21.3304C94.7329 21.3394 94.7212 21.3444 94.7089 21.3444H78.7996C78.794 21.3444 78.7885 21.3455 78.7833 21.3477C78.7782 21.3499 78.7735 21.3532 78.7696 21.3573C78.7657 21.3613 78.7626 21.3662 78.7604 21.3715C78.7583 21.3768 78.7572 21.3825 78.7572 21.3883V24.8633C78.7567 24.8693 78.7574 24.8755 78.7592 24.8813C78.7611 24.8871 78.7642 24.8924 78.7682 24.8969C78.7721 24.9014 78.777 24.905 78.7824 24.9074C78.7878 24.9099 78.7937 24.9112 78.7996 24.9111H97.6397C97.6456 24.9106 97.6515 24.9113 97.6571 24.9132C97.6627 24.9152 97.6678 24.9183 97.6722 24.9225C97.6765 24.9266 97.68 24.9316 97.6823 24.9372C97.6847 24.9428 97.6859 24.9489 97.6859 24.955V25.9365C97.6883 25.9414 97.6895 25.9469 97.6895 25.9524C97.6895 25.958 97.6883 25.9634 97.6859 25.9684L95.2404 28.4779C95.2305 28.4819 95.2195 28.4819 95.2096 28.4779H74.4939C74.4883 28.4779 74.4828 28.4767 74.4777 28.4745C74.4726 28.4723 74.4679 28.4691 74.464 28.465C74.46 28.4609 74.4569 28.4561 74.4548 28.4508C74.4526 28.4454 74.4515 28.4397 74.4515 28.434V11.482C74.4515 11.4704 74.456 11.4592 74.464 11.451C74.4719 11.4428 74.4827 11.4382 74.4939 11.4382H97.6397C97.6456 11.4376 97.6515 11.4383 97.6571 11.4403C97.6627 11.4422 97.6678 11.4454 97.6722 11.4495C97.6765 11.4536 97.68 11.4587 97.6823 11.4643C97.6847 11.4699 97.6859 11.4759 97.6859 11.482V14.9849C97.6859 14.991 97.6847 14.9971 97.6823 15.0027C97.68 15.0083 97.6765 15.0133 97.6722 15.0175C97.6678 15.0216 97.6627 15.0247 97.6571 15.0267C97.6515 15.0287 97.6456 15.0294 97.6397 15.0288H78.7996C78.7914 15.0273 78.7829 15.0284 78.7753 15.0318C78.7677 15.0353 78.7612 15.041 78.7567 15.0482C78.7522 15.0554 78.7498 15.0639 78.7499 15.0725C78.75 15.0811 78.7525 15.0895 78.7572 15.0966V15.0607ZM59.4241 15.0607V25.8567C59.428 25.8669 59.428 25.8783 59.4241 25.8886L56.9362 28.4779C56.9263 28.4819 56.9153 28.4819 56.9054 28.4779H54.9529C54.9473 28.4779 54.9418 28.4767 54.9367 28.4745C54.9315 28.4723 54.9268 28.4691 54.9229 28.465C54.919 28.4609 54.9159 28.4561 54.9137 28.4508C54.9116 28.4454 54.9105 28.4397 54.9105 28.434V15.0727C54.9105 15.0669 54.9094 15.0612 54.9073 15.0559C54.9052 15.0506 54.902 15.0457 54.8981 15.0417C54.8942 15.0376 54.8895 15.0344 54.8844 15.0322C54.8792 15.03 54.8737 15.0288 54.8681 15.0288H43.7536C43.7477 15.0294 43.7417 15.0287 43.7362 15.0267C43.7306 15.0247 43.7254 15.0216 43.7211 15.0175C43.7167 15.0133 43.7133 15.0083 43.7109 15.0027C43.7085 14.9971 43.7073 14.991 43.7073 14.9849V11.482C43.7073 11.4759 43.7085 11.4699 43.7109 11.4643C43.7133 11.4587 43.7167 11.4536 43.7211 11.4495C43.7254 11.4454 43.7306 11.4422 43.7362 11.4403C43.7417 11.4383 43.7477 11.4376 43.7536 11.4382H70.5849C70.5962 11.4382 70.6069 11.4428 70.6149 11.451C70.6228 11.4592 70.6273 11.4704 70.6273 11.482V14.9849C70.6273 14.9966 70.6228 15.0077 70.6149 15.016C70.6069 15.0242 70.5962 15.0288 70.5849 15.0288H59.4549C59.4477 15.0296 59.4408 15.0323 59.4349 15.0367C59.429 15.0411 59.4242 15.047 59.4211 15.0538C59.4181 15.0606 59.4167 15.0681 59.4172 15.0756C59.4177 15.0831 59.4201 15.0904 59.4241 15.0966V15.0607ZM240.077 29.1521C236.453 29.1521 230.969 28.6135 227.753 26.6666C227.747 26.662 227.742 26.656 227.738 26.6491C227.735 26.6421 227.733 26.6344 227.734 26.6267V22.1383C227.733 22.1301 227.735 22.122 227.74 22.115C227.744 22.1079 227.75 22.1022 227.757 22.0984C227.764 22.0946 227.772 22.0926 227.78 22.0926C227.788 22.0926 227.796 22.0946 227.803 22.0984L228.92 22.9323C231.908 25.1585 236.534 25.5574 240.088 25.5574C241.556 25.5574 246.543 25.5574 247.317 23.802C247.405 23.5877 247.448 23.3566 247.444 23.1238C247.448 22.9851 247.418 22.8476 247.355 22.7248C245.73 19.6408 227.907 24.197 227.907 16.0821C227.907 10.9674 235.494 10.8078 238.894 10.8078C242.125 10.8078 247.664 11.0512 250.563 12.5513L251.033 12.7986C251.041 12.8019 251.047 12.8076 251.051 12.8147C251.055 12.8219 251.057 12.8302 251.056 12.8385V16.3773C251.059 16.3829 251.061 16.389 251.061 16.3953C251.061 16.4015 251.059 16.4076 251.056 16.4132C251.05 16.4161 251.044 16.4176 251.037 16.4176C251.031 16.4176 251.024 16.4161 251.018 16.4132C247.459 15.2842 245.653 14.7894 241.875 14.5022C240.889 14.4277 239.901 14.3905 238.91 14.3905C237.885 14.3905 233.064 14.3905 232.555 15.6871C232.516 15.7886 232.498 15.8972 232.501 16.0063C232.497 16.1209 232.521 16.2348 232.571 16.3374C234.076 19.3376 252.035 15.0129 252.035 23.028C252.015 28.9446 244.09 29.1521 240.077 29.1521ZM212.664 21.5718V26.1399C212.666 26.1449 212.667 26.1504 212.667 26.1559C212.667 26.1614 212.666 26.1669 212.664 26.1718L210.395 28.4779C210.385 28.4812 210.375 28.4812 210.365 28.4779H208.389C208.383 28.4779 208.378 28.4767 208.373 28.4745C208.368 28.4723 208.363 28.4691 208.359 28.465C208.355 28.4609 208.352 28.4561 208.35 28.4508C208.348 28.4454 208.347 28.4397 208.347 28.434V21.5598C208.346 21.5528 208.344 21.5458 208.341 21.5396C208.337 21.5334 208.333 21.5281 208.327 21.5239L193.889 11.5219C193.881 11.5161 193.876 11.5081 193.872 11.4989C193.869 11.4897 193.868 11.4797 193.87 11.4701C193.873 11.4609 193.879 11.453 193.886 11.4473C193.894 11.4416 193.903 11.4384 193.912 11.4382H200.756C200.765 11.4351 200.774 11.4351 200.783 11.4382L210.472 18.3921C210.48 18.396 210.489 18.398 210.497 18.398C210.506 18.398 210.515 18.396 210.522 18.3921L220.216 11.4382C220.22 11.4364 220.224 11.4355 220.228 11.4355C220.232 11.4355 220.235 11.4364 220.239 11.4382H227.09C227.1 11.4384 227.109 11.4416 227.116 11.4473C227.124 11.453 227.13 11.4609 227.133 11.4701C227.137 11.478 227.139 11.4869 227.139 11.496C227.139 11.5051 227.137 11.5141 227.133 11.5219L212.691 21.496C212.682 21.4907 212.672 21.4892 212.662 21.4918C212.652 21.4945 212.644 21.501 212.639 21.51C212.634 21.519 212.632 21.5297 212.635 21.5398C212.637 21.5499 212.643 21.5585 212.652 21.5638L212.664 21.5718ZM181.638 29.1521C178.011 29.1521 172.53 28.6135 169.315 26.6666C169.307 26.6628 169.302 26.6571 169.297 26.65C169.293 26.643 169.291 26.6349 169.291 26.6267V22.1383C169.291 22.1301 169.293 22.122 169.297 22.115C169.302 22.1079 169.307 22.1022 169.315 22.0984C169.322 22.0946 169.33 22.0926 169.338 22.0926C169.346 22.0926 169.354 22.0946 169.361 22.0984L170.481 22.9323C173.47 25.1585 178.091 25.5574 181.65 25.5574C183.113 25.5574 188.105 25.5574 188.875 23.802C188.964 23.5883 189.008 23.3568 189.002 23.1238C189.006 22.9851 188.976 22.8476 188.913 22.7248C187.288 19.6408 169.465 24.197 169.465 16.0821C169.465 10.9674 177.055 10.8078 180.456 10.8078C183.683 10.8078 189.221 11.0512 192.121 12.5513L192.591 12.7986C192.599 12.8018 192.606 12.8072 192.611 12.8143C192.615 12.8214 192.618 12.8299 192.618 12.8385V16.3773C192.618 16.3845 192.616 16.3915 192.613 16.3977C192.61 16.404 192.605 16.4093 192.599 16.4132C192.593 16.4161 192.586 16.4176 192.58 16.4176C192.573 16.4176 192.566 16.4161 192.56 16.4132C189.002 15.2842 187.2 14.7894 183.422 14.5022C182.436 14.4264 181.442 14.3905 180.456 14.3905C179.47 14.3905 174.606 14.3905 174.098 15.6871C174.061 15.7891 174.042 15.8973 174.044 16.0063C174.042 16.1208 174.065 16.2342 174.113 16.3374C175.619 19.3376 193.581 15.0129 193.581 23.028C193.558 28.9446 185.648 29.1521 181.627 29.1521H181.638ZM161.146 28.4779V11.5259C161.146 11.5143 161.151 11.5031 161.159 11.4949C161.166 11.4867 161.177 11.482 161.188 11.482H165.425C165.436 11.482 165.447 11.4867 165.455 11.4949C165.463 11.5031 165.467 11.5143 165.467 11.5259V25.9325C165.469 25.9375 165.47 25.9429 165.47 25.9484C165.47 25.9539 165.469 25.9594 165.467 25.9644L162.987 28.4779C162.976 28.4818 162.964 28.4818 162.952 28.4779H161.188C161.182 28.4817 161.175 28.4837 161.167 28.4837C161.16 28.4837 161.153 28.4817 161.146 28.4779Z" fill="white"/>
</g>
<defs>
<clipPath id="clip0_204:1131">
<rect width="252" height="40" fill="white"/>
</clipPath>
</defs>
</svg>
